<svg width="309" height="224" viewBox="0 0 309 224" fill="none" xmlns="http://www.w3.org/2000/svg">
<path fill-rule="evenodd" clip-rule="evenodd" d="M25.2603 63H5.26026V116.001C4.98319 119.465 4.98386 123.047 5.26026 126.726V127H5.2813C6.03074 136.52 8.62062 146.689 13.0164 157.154C19.1559 171.77 28.4377 184.855 40.2029 195.48C51.9682 206.105 65.9284 214.01 81.0923 218.634C96.2562 223.257 112.252 224.485 127.944 222.231C143.636 219.977 158.639 214.296 171.889 205.592C185.139 196.887 196.309 185.373 204.608 171.865C212.907 158.358 218.131 143.189 219.908 127.436C221.685 111.683 219.973 95.732 214.892 80.7152L195.711 87.2047C199.84 99.4061 201.231 112.367 199.787 125.166C198.343 137.966 194.099 150.291 187.356 161.266C180.613 172.24 171.536 181.596 160.771 188.669C150.006 195.741 137.815 200.357 125.065 202.188C112.315 204.02 99.3184 203.022 86.9975 199.265C74.6766 195.509 63.3338 189.086 53.7743 180.453C44.2149 171.82 36.6733 161.188 31.6849 149.312C28.2775 141.2 26.1185 132.644 25.2603 123.933V63Z" fill="black"/>
<circle cx="14.9902" cy="26.5" r="14.5" fill="#72A74D"/>
<path d="M67.1702 127.216C65.8262 127.216 64.6582 127.024 63.6662 126.64C62.6902 126.256 61.9462 125.744 61.4342 125.104C60.9222 124.464 60.6662 123.776 60.6662 123.04C60.6662 122.432 60.8262 121.968 61.1462 121.648C61.4662 121.312 61.9542 121.144 62.6102 121.144C62.6102 122.504 63.0182 123.544 63.8342 124.264C64.6502 124.968 65.7942 125.32 67.2662 125.32C68.6742 125.32 69.7542 125.088 70.5062 124.624C71.2582 124.144 71.6342 123.44 71.6342 122.512C71.6342 121.952 71.4902 121.496 71.2022 121.144C70.9302 120.776 70.4582 120.464 69.7862 120.208C69.1302 119.936 68.1782 119.664 66.9302 119.392C65.4582 119.072 64.2902 118.704 63.4262 118.288C62.5622 117.856 61.9302 117.336 61.5302 116.728C61.1302 116.12 60.9302 115.368 60.9302 114.472C60.9302 113.576 61.1782 112.792 61.6742 112.12C62.1862 111.432 62.9062 110.904 63.8342 110.536C64.7622 110.168 65.8422 109.984 67.0742 109.984C68.2422 109.984 69.2822 110.152 70.1942 110.488C71.1222 110.808 71.8422 111.272 72.3542 111.88C72.8822 112.472 73.1462 113.144 73.1462 113.896C73.1462 114.36 72.9942 114.728 72.6902 115C72.4022 115.256 71.9462 115.384 71.3222 115.384C71.1462 114.168 70.7142 113.28 70.0262 112.72C69.3542 112.16 68.3702 111.88 67.0742 111.88C65.8262 111.88 64.8662 112.104 64.1942 112.552C63.5222 112.984 63.1862 113.6 63.1862 114.4C63.1862 114.96 63.3062 115.424 63.5462 115.792C63.8022 116.144 64.2262 116.448 64.8182 116.704C65.4262 116.96 66.2742 117.208 67.3622 117.448C68.9942 117.8 70.2742 118.192 71.2022 118.624C72.1462 119.056 72.8262 119.584 73.2422 120.208C73.6582 120.832 73.8662 121.6 73.8662 122.512C73.8662 123.968 73.2582 125.12 72.0422 125.968C70.8262 126.8 69.2022 127.216 67.1702 127.216ZM81.5134 112.192H75.6574C75.6574 110.864 76.2814 110.2 77.5294 110.2H89.6014C89.6014 111.528 88.9774 112.192 87.7294 112.192H83.7694V125.344C83.7694 125.952 83.5774 126.416 83.1934 126.736C82.8094 127.056 82.2494 127.216 81.5134 127.216V112.192ZM99.6902 127.216C98.4262 127.216 97.2822 126.96 96.2582 126.448C95.2342 125.936 94.4262 125.232 93.8342 124.336C93.2582 123.424 92.9702 122.408 92.9702 121.288V111.856C92.9702 111.248 93.1622 110.784 93.5462 110.464C93.9302 110.144 94.4902 109.984 95.2262 109.984V121.288C95.2262 122.456 95.6342 123.4 96.4502 124.12C97.2822 124.84 98.3622 125.2 99.6902 125.2C101.018 125.2 102.09 124.84 102.906 124.12C103.722 123.4 104.13 122.456 104.13 121.288V111.856C104.13 111.248 104.322 110.784 104.706 110.464C105.09 110.144 105.65 109.984 106.386 109.984V121.288C106.386 122.408 106.098 123.424 105.522 124.336C104.946 125.232 104.146 125.936 103.122 126.448C102.098 126.96 100.954 127.216 99.6902 127.216ZM111.749 127C111.429 127 111.157 126.904 110.933 126.712C110.709 126.504 110.597 126.248 110.597 125.944V111.256C110.597 110.952 110.701 110.704 110.909 110.512C111.133 110.304 111.413 110.2 111.749 110.2H117.365C118.725 110.2 119.925 110.456 120.965 110.968C122.005 111.48 122.813 112.2 123.389 113.128C123.981 114.04 124.277 115.088 124.277 116.272V120.88C124.277 122.064 123.981 123.12 123.389 124.048C122.813 124.976 121.997 125.704 120.941 126.232C119.901 126.744 118.709 127 117.365 127H111.749ZM117.125 125.032C118.661 125.032 119.861 124.672 120.725 123.952C121.589 123.216 122.021 122.2 122.021 120.904V116.248C122.021 114.968 121.589 113.968 120.725 113.248C119.861 112.528 118.661 112.168 117.125 112.168H112.853V125.032H117.125ZM128.842 111.856C128.842 111.264 129.034 110.808 129.418 110.488C129.818 110.152 130.378 109.984 131.098 109.984V125.344C131.098 125.936 130.898 126.4 130.498 126.736C130.114 127.056 129.562 127.216 128.842 127.216V111.856ZM142.22 127.216C140.892 127.216 139.7 126.96 138.644 126.448C137.604 125.92 136.788 125.2 136.196 124.288C135.604 123.36 135.308 122.336 135.308 121.216V115.936C135.308 114.816 135.604 113.808 136.196 112.912C136.788 112 137.604 111.288 138.644 110.776C139.7 110.248 140.892 109.984 142.22 109.984C143.564 109.984 144.756 110.248 145.796 110.776C146.852 111.288 147.676 112 148.268 112.912C148.86 113.808 149.156 114.816 149.156 115.936V121.216C149.156 122.336 148.86 123.36 148.268 124.288C147.676 125.2 146.852 125.92 145.796 126.448C144.74 126.96 143.548 127.216 142.22 127.216ZM142.22 125.248C143.708 125.248 144.868 124.88 145.7 124.144C146.532 123.408 146.948 122.424 146.948 121.192V115.984C146.948 114.752 146.532 113.776 145.7 113.056C144.868 112.32 143.708 111.952 142.22 111.952C140.748 111.952 139.596 112.32 138.764 113.056C137.932 113.776 137.516 114.752 137.516 115.984V121.192C137.516 122.424 137.932 123.408 138.764 124.144C139.596 124.88 140.748 125.248 142.22 125.248Z" fill="black"/>
<path fill-rule="evenodd" clip-rule="evenodd" d="M267.16 207.779C280.264 213.206 294.308 216 308.49 216V195.751C296.967 195.751 285.556 193.482 274.909 189.072C264.263 184.662 254.589 178.198 246.441 170.05C238.292 161.901 231.828 152.228 227.418 141.581C223.009 130.935 220.739 119.524 220.739 108C220.739 96.4763 223.009 85.0655 227.419 74.419C231.828 63.7725 238.292 54.0988 246.441 45.9504C254.589 37.8019 264.263 31.3382 274.909 26.9282C285.556 22.5183 296.967 20.2486 308.49 20.2486V0C294.307 7.32513e-07 280.264 2.7935 267.16 8.22101C254.057 13.6485 242.151 21.6037 232.123 31.6325C222.194 41.5607 214.298 53.3287 208.875 66.2768C208.803 66.1332 208.73 65.9898 208.656 65.8465C201.745 52.3241 192.059 40.4115 180.231 30.8861C168.404 21.3607 154.7 14.4368 140.015 10.5664C125.33 6.69599 109.994 5.96607 95.0082 8.42429L98.2858 28.4058C110.462 26.4085 122.923 27.0016 134.855 30.1463C146.786 33.2911 157.921 38.9168 167.531 46.6563C177.141 54.3958 185.011 64.075 190.627 75.0621C196.242 86.0492 199.478 98.0972 200.122 110.419L200.517 110.399C200.814 123.764 203.59 136.966 208.711 149.33C214.139 162.433 222.094 174.339 232.123 184.368C242.151 194.396 254.057 202.351 267.16 207.779Z" fill="#72A74D"/>
</svg>
